<?xml version="1.0" encoding="UTF-8"?>
<svg width="16px" height="16px" viewBox="0 0 16 16" version="1.1" xmlns="http://www.w3.org/2000/svg" xmlns:xlink="http://www.w3.org/1999/xlink">
    <title>箭头 下</title>
    <g id="页面-1" stroke="none" stroke-width="1" fill="none" fill-rule="evenodd">
        <g id="官网备份" transform="translate(-1856.000000, -9881.000000)" fill="#FFFFFF" fill-rule="nonzero">
            <g id="编组-3" transform="translate(0.000000, 9825.000000)">
                <g id="编组-10" transform="translate(1848.000000, 48.000000)">
                    <g id="箭头-下" transform="translate(16.000000, 16.000000) rotate(-180.000000) translate(-16.000000, -16.000000) translate(8.000000, 8.000000)">
                        <rect id="矩形" opacity="0" x="0" y="0" width="16" height="16"></rect>
                        <path d="M8.08888889,12.4444444 C7.37777778,12.4444444 6.75555556,12.1777778 6.22222222,11.6444444 L1.15555556,5.95555556 C0.8,5.6 0.888888891,5.06666667 1.24444444,4.71111111 C1.6,4.35555555 2.13333333,4.44444444 2.48888889,4.8 L7.64444444,10.4888889 C7.73333333,10.5777778 7.91111111,10.6666667 8.08888889,10.6666667 C8.26666667,10.6666667 8.44444445,10.5777778 8.62222222,10.4 L13.5111111,4.71111111 C13.8666667,4.35555555 14.4,4.26666667 14.7555556,4.62222222 C15.1111111,4.97777778 15.2,5.51111111 14.8444444,5.86666667 L9.95555556,11.5555556 C9.51111113,12.1777778 8.88888889,12.4444444 8.08888889,12.4444444 C8.17777778,12.4444444 8.08888889,12.4444444 8.08888889,12.4444444 Z" id="路径"></path>
                    </g>
                </g>
            </g>
        </g>
    </g>
</svg>