<?xml version="1.0" encoding="UTF-8"?>
<svg width="22px" height="22px" viewBox="0 0 22 22" version="1.1" xmlns="http://www.w3.org/2000/svg" xmlns:xlink="http://www.w3.org/1999/xlink">
    <title>切片</title>
    <g id="页面-1" stroke="none" stroke-width="1" fill="none" fill-rule="evenodd">
        <g id="画板" transform="translate(-311.000000, -91.000000)">
            <g id="icon/数码家居" transform="translate(311.000000, 91.000000)">
                <g id="编组" transform="translate(2.000000, 2.000000)">
                    <path d="M0.426537656,6.11809031 L8.59320432,0.401423641 C8.93752447,0.160399535 9.39580886,0.160399535 9.74012901,0.401423641 L17.9067957,6.11809031 C18.1741224,6.30521898 18.3333333,6.61100843 18.3333333,6.93732223 L18.3333333,16.5 C18.3333333,17.0522847 17.8856181,17.5 17.3333333,17.5 L1,17.5 C0.44771525,17.5 6.76353751e-17,17.0522847 0,16.5 L0,6.93732223 C-4.40809088e-16,6.61100843 0.159210978,6.30521898 0.426537656,6.11809031 Z" id="路径" stroke="#444444" stroke-width="1.83333333" stroke-linejoin="round"></path>
                    <path d="M3.9813125,8.48122083 C4.66230417,7.800275 5.4707125,7.26008333 6.36042917,6.8915375 C7.25014583,6.5230375 8.20375417,6.33333333 9.16675833,6.33333333 C10.1298083,6.33333333 11.0834167,6.5230375 11.9731333,6.8915375 C12.86285,7.26008333 13.6712583,7.800275 14.35225,8.48122083" id="路径" stroke="#444444" stroke-width="1.83333333" stroke-linecap="round"></path>
                    <path d="M6.57378333,11.0739208 C6.91423333,10.7334708 7.31848333,10.463375 7.76334167,10.279125 C8.2082,10.0948292 8.68500417,10 9.16648333,10 C9.64800833,10 10.1248125,10.0948292 10.5696708,10.279125 C11.0145292,10.463375 11.4187333,10.7334708 11.7592292,11.0739208" id="路径" stroke="#444444" stroke-width="1.83333333" stroke-linecap="round"></path>
                    <path d="M9.1875,15.3611111 C9.8433325,15.3611111 10.375,14.8325528 10.375,14.1805556 C10.375,13.5285583 9.8433325,13 9.1875,13 C8.5316675,13 8,13.5285583 8,14.1805556 C8,14.8325528 8.5316675,15.3611111 9.1875,15.3611111 Z" id="路径" fill="#444444"></path>
                </g>
            </g>
        </g>
    </g>
</svg>