<?xml version="1.0" encoding="UTF-8"?>
<svg width="22px" height="22px" viewBox="0 0 22 22" version="1.1" xmlns="http://www.w3.org/2000/svg" xmlns:xlink="http://www.w3.org/1999/xlink">
    <title>切片</title>
    <g id="页面-1" stroke="none" stroke-width="1" fill="none" fill-rule="evenodd">
        <g id="画板" transform="translate(-191.000000, -91.000000)" stroke="#444444" stroke-width="1.83333333">
            <g id="icon/电脑" transform="translate(191.000000, 91.000000)">
                <g id="编组" transform="translate(2.199170, 3.000000)">
                    <polygon id="矩形" points="6.41666667 12 11 12 11 16.125 6.41666667 16.125"></polygon>
                    <path d="M0.916666667,0 L16.5,0 C17.006261,-3.15043246e-16 17.4166667,0.410405646 17.4166667,0.916666667 L17.4166667,11.0833333 C17.4166667,11.5895944 17.006261,12 16.5,12 L0.916666667,12 C0.410405646,12 -2.71067814e-16,11.5895944 0,11.0833333 L0,0.916666667 C-1.73021396e-16,0.410405646 0.410405646,-1.80236617e-17 0.916666667,0 Z" id="矩形" stroke-linejoin="round"></path>
                    <line x1="7.79166667" y1="9.70833333" x2="9.625" y2="9.70833333" id="路径" stroke-linecap="round"></line>
                    <line x1="4.125" y1="16.125" x2="13.2916667" y2="16.125" id="路径" stroke-linecap="round"></line>
                </g>
            </g>
        </g>
    </g>
</svg>