<?xml version="1.0" encoding="UTF-8"?>
<svg width="22px" height="22px" viewBox="0 0 22 22" version="1.1" xmlns="http://www.w3.org/2000/svg" xmlns:xlink="http://www.w3.org/1999/xlink">
    <title>切片</title>
    <g id="页面-1" stroke="none" stroke-width="1" fill="none" fill-rule="evenodd">
        <g id="画板" transform="translate(-111.000000, -91.000000)">
            <g id="icon/车" transform="translate(111.000000, 91.000000)">
                <g id="编组" transform="translate(1.500000, 3.000000)">
                    <path d="M4.5125,12.2777778 C5.1683325,12.2777778 5.7,11.7492194 5.7,11.0972222 C5.7,10.445225 5.1683325,9.91666667 4.5125,9.91666667 C3.8566675,9.91666667 3.325,10.445225 3.325,11.0972222 C3.325,11.7492194 3.8566675,12.2777778 4.5125,12.2777778 Z" id="路径" fill="#444444"></path>
                    <path d="M14.4875,12.2777778 C15.1433325,12.2777778 15.675,11.7492194 15.675,11.0972222 C15.675,10.445225 15.1433325,9.91666667 14.4875,9.91666667 C13.8316675,9.91666667 13.3,10.445225 13.3,11.0972222 C13.3,11.7492194 13.8316675,12.2777778 14.4875,12.2777778 Z" id="路径" fill="#444444"></path>
                    <path d="M1.425,14.6388889 C0.63799625,14.6388889 0,14.0046472 0,13.2222222 L0,8.83513611 C0,7.76158611 0.6103085,6.78021389 1.576335,6.30048333 L1.90025175,6.13959722 L2.9974875,1.46008278 C3.197985,0.604996944 3.9646825,0 4.84785,0 L14.1997925,0 C15.0895625,0 15.8602025,0.613879444 16.0540975,1.47718667 L17.1014725,6.13959722 L17.424615,6.3002 C18.3901,6.78016667 19,7.76120833 19,8.83438056 L19,13.2222222 C19,14.0046472 18.3620275,14.6388889 17.575,14.6388889 L16.6264725,14.6388889 L16.6264725,15.1111111 C16.6264725,16.1542972 15.7750825,17 14.72576,17 C13.67639,17 12.825,16.1542972 12.825,15.1111111 L12.825,14.6388889 L6.175,14.6388889 L6.175,15.1112528 C6.175,16.1543917 5.3244175,17 4.2751425,17 C3.2258675,17 2.37525175,16.1543917 2.37525175,15.1112528 L2.37525175,14.6388889 L1.425,14.6388889 Z" id="路径" stroke="#444444" stroke-width="1.83333333" stroke-linejoin="round"></path>
                    <polygon id="路径" stroke="#444444" stroke-width="1.5" stroke-linejoin="round" points="4.75 7.3171781 14.25 7.3171781 13.2570758 3.23203048 5.85547058 3.23203048"></polygon>
                </g>
            </g>
        </g>
    </g>
</svg>