<?xml version="1.0" encoding="UTF-8"?>
<svg width="22px" height="22px" viewBox="0 0 22 22" version="1.1" xmlns="http://www.w3.org/2000/svg" xmlns:xlink="http://www.w3.org/1999/xlink">
    <title>切片</title>
    <g id="页面-1" stroke="none" stroke-width="1" fill="none" fill-rule="evenodd">
        <g id="画板" transform="translate(-231.000000, -91.000000)" fill="#444444" fill-rule="nonzero" stroke="#444444" stroke-width="0.2">
            <g id="icon/软件生态" transform="translate(231.000000, 91.000000)">
                <g id="编组" transform="translate(1.000000, 1.000000)">
                    <path d="M18.7223245,12.9182999 C19.6055139,8.67175858 17.2988218,4.40703704 13.2615243,2.82184144 C13.027141,1.20126289 11.6374568,-0.00117120228 9.99990091,8.56093802e-07 C8.36254054,-0.000975716324 6.97305181,1.20126289 6.73886393,2.82184144 C3.33316998,4.15916085 1.09274648,7.44469326 1.09176907,11.1037993 C1.09176907,11.5702288 1.15451891,12.1754533 1.27806377,12.9173225 C0.499848434,13.5192238 0,14.4608796 0,15.5192405 C0.000390964751,16.3924763 0.347958628,17.2297426 0.965682935,17.8468918 C1.58349999,18.4640773 2.4211938,18.8105385 3.29446447,18.8100511 C3.8764155,18.8100511 4.42357067,18.6599179 4.89644254,18.3964028 C6.39239245,19.4428272 8.17449451,20.0027648 10.0000964,19.9999871 C11.8255108,20.0031018 13.6075282,19.4426436 15.1027728,18.3954254 C15.577404,18.6591359 16.1237773,18.810833 16.7055328,18.810833 C17.5787526,18.8114195 18.4163946,18.4648229 19.0343144,17.8476737 C19.6522465,17.2305448 19.9996289,16.3931552 20,15.519827 C20.0007499,14.5013937 19.5287344,13.5403017 18.7223245,12.9182999 L18.7223245,12.9182999 Z M9.97527013,1.42900403 C10.9908011,1.42900403 11.8139777,2.25199989 11.8139777,3.26520358 C11.8145638,4.28016665 10.9923649,5.103358 9.97761592,5.10414026 C8.96267143,5.1047264 8.13949515,4.28251248 8.13890814,3.2677449 C8.13812677,2.25278183 8.96032564,1.429395 9.97527013,1.42900403 Z M3.30775727,17.2745092 C2.29281278,17.2750954 1.4696365,16.4528815 1.46904949,15.4381139 C1.46826812,14.4231508 2.29046699,13.5999595 3.30541149,13.599373 C4.32094243,13.599373 5.14411902,14.4223689 5.14411902,15.4355726 C5.14470516,16.4507311 4.32250629,17.2739225 3.30775727,17.2745092 L3.30775727,17.2745092 Z M13.8041834,17.0801959 C12.6815281,17.794697 11.3716007,18.1848993 9.99990091,18.1848993 C8.65239473,18.1874084 7.3323899,17.8037059 6.19620485,17.0792184 C6.45479254,16.6003254 6.58977915,16.0644678 6.58892895,15.520218 C6.58892895,13.7027851 5.08175983,12.0929582 3.00084994,12.2438734 C3.00084994,12.2438734 2.88903403,11.5438382 2.90995064,11.1037993 C2.91073257,8.34686093 4.51134226,5.84073101 7.01253925,4.68091286 C7.55480736,5.8409265 8.71949136,6.58181826 9.99990091,6.58103632 C11.290671,6.58103632 12.4070709,5.86809905 12.9860897,4.67915348 C15.4878731,5.83936261 17.0890693,8.34607899 17.0896557,11.1037993 C17.0896557,11.4891021 16.9969971,12.2438734 16.9969971,12.2438734 C14.9487327,12.061094 13.4106774,13.7020031 13.4106774,15.520218 C13.4099071,16.0648654 13.5451683,16.601082 13.8041834,17.0801959 L13.8041834,17.0801959 Z M16.620107,17.2745092 C15.6051625,17.2750954 14.7819863,16.4528815 14.7813993,15.4381139 C14.7806179,14.4231508 15.6028168,13.5999595 16.6177613,13.599373 C17.6332922,13.599373 18.4564688,14.4223689 18.4564688,15.4355726 C18.4570549,16.4507311 17.6348561,17.2739225 16.620107,17.2745092 L16.620107,17.2745092 Z" id="形状"></path>
                </g>
            </g>
        </g>
    </g>
</svg>