<?xml version="1.0" encoding="UTF-8"?>
<svg width="22px" height="22px" viewBox="0 0 22 22" version="1.1" xmlns="http://www.w3.org/2000/svg" xmlns:xlink="http://www.w3.org/1999/xlink">
    <title>切片</title>
    <g id="页面-1" stroke="none" stroke-width="1" fill="none" fill-rule="evenodd" stroke-linejoin="round">
        <g id="画板" transform="translate(-151.000000, -91.000000)" stroke="#444444" stroke-width="1.83333333">
            <g id="icon/榜单" transform="translate(151.000000, 91.000000)">
                <g id="编组" transform="translate(2.000000, 3.000000)">
                    <path d="M5.95833333,4.5 L1,4.5 C0.44771525,4.5 -2.8967998e-16,4.94771525 0,5.5 L0,16.5 L0,16.5 L5.95833333,16.5 L5.95833333,4.5 Z" id="路径"></path>
                    <path d="M10.9166667,0 L6.95833333,0 C6.40604858,1.01453063e-16 5.95833333,0.44771525 5.95833333,1 L5.95833333,16.5 L5.95833333,16.5 L11.9166667,16.5 L11.9166667,1 C11.9166667,0.44771525 11.4689514,-9.89631482e-16 10.9166667,0 Z" id="路径"></path>
                    <path d="M16.875,8.16666667 L11.9166667,8.16666667 L11.9166667,8.16666667 L11.9166667,16.5 L17.875,16.5 L17.875,9.16666667 C17.875,8.61438192 17.4272847,8.16666667 16.875,8.16666667 Z" id="路径"></path>
                </g>
            </g>
        </g>
    </g>
</svg>